<svg viewBox="0 0 24 24" xmlns="http://www.w3.org/2000/svg"><g fill-rule="evenodd"><path d="M 16.297693,5.2246154 H 16.076154 V 0 H 12.67 A 4.6153846,4.6153846 0 0 0 8.0546154,4.6153846 V 5.2246154 H 0.55 V 22.153846 h 7.2738461 a 5.04,5.04 0 0 1 3.6923079,1.283077 l 0.470769,0.47077 v 0 L 12.033077,24 a 5.1876923,5.1876923 0 0 1 4.246155,-1.846154 h 7.292307 V 5.2246154 Z M 10.011539,4.6153846 A 2.6584616,2.6584616 0 0 1 12.67,1.9569232 h 1.44 V 13.329232 h -1.44 a 4.5230768,4.5230768 0 0 0 -2.658461,0.858461 z m 0,13.3384614 A 2.7138461,2.7138461 0 0 1 11.11,15.84 v 4.467693 l -0.295384,-0.295386 a 3.0646154,3.0646154 0 0 1 -0.775384,-1.947691 z m -7.4953851,2.27077 V 7.1815384 H 8.0546154 V 17.944616 a 5.2430768,5.2430768 0 0 0 0.5538462,2.307691 c -0.2492309,0 -0.5076923,0 -0.7846155,0 z m 19.0984621,0 h -5.307693 a 7.7446154,7.7446154 0 0 0 -3.267691,0.636923 v -5.538462 h 3.036922 V 7.1907693 h 5.538462 z" /></g></svg>
